<svg xmlns="http://www.w3.org/2000/svg" width="75" height="74" fill="none" viewBox="0 0 75 74"><path fill="url(#a)" stroke="#fff" stroke-width="4" d="M72.283 37c0 19.33-15.67 35-35 35s-35-15.67-35-35 15.67-35 35-35 35 15.67 35 35z"/><path fill="url(#b)" fill-opacity=".4" fill-rule="evenodd" d="M37.153 63.414c14.517 0 26.285-11.768 26.285-26.285 0-14.516-11.768-26.284-26.285-26.284-14.516 0-26.284 11.768-26.284 26.284 0 14.517 11.768 26.285 26.284 26.285z" clip-rule="evenodd" style="mix-blend-mode:soft-light"/><path fill="#985D1B" stroke="#7E4E18" d="M58.503 17.347a1.136 1.136 0 0 1-1.174 1.946 30.413 30.413 0 0 0-10.62-3.957 1.136 1.136 0 0 1 .382-2.24 32.686 32.686 0 0 1 11.412 4.251zM15.832 17.411a1.136 1.136 0 0 0 1.194 1.933 30.414 30.414 0 0 1 10.577-4.068 1.136 1.136 0 1 0-.405-2.236 32.688 32.688 0 0 0-11.366 4.371z"/><path fill="url(#c)" fill-rule="evenodd" d="M53.57 60.172c7.981 0 14.45-6.47 14.45-14.45 0-7.98-6.469-14.45-14.45-14.45-7.98 0-14.45 6.47-14.45 14.45 0 7.98 6.47 14.45 14.45 14.45z" clip-rule="evenodd"/><path fill="url(#d)" fill-rule="evenodd" d="M20.5 60.356c7.98 0 14.45-6.47 14.45-14.45 0-7.98-6.47-14.45-14.45-14.45-7.981 0-14.45 6.47-14.45 14.45 0 7.98 6.469 14.45 14.45 14.45z" clip-rule="evenodd"/><path fill="#985D1B" stroke="#7E4E18" d="M31.153 54.81a1 1 0 1 1 0-2h12a1 1 0 1 1 0 2h-12z"/><circle cx="22.278" cy="33.245" r="9.558" fill="#fff" stroke="#A37C50" stroke-width="1.4"/><path fill="#000" stroke="#7E4E18" d="M25.778 33.245a3.5 3.5 0 1 1-7 0 3.5 3.5 0 0 1 7 0z"/><circle cx="52.469" cy="33.245" r="9.558" fill="#fff" stroke="#A37C50" stroke-width="1.4"/><path fill="#000" stroke="#7E4E18" d="M55.969 33.245a3.5 3.5 0 1 1-7 0 3.5 3.5 0 0 1 7 0z"/><defs><radialGradient id="a" cx="0" cy="0" r="1" gradientUnits="userSpaceOnUse" gradientTransform="matrix(0 41 -41 0 37.283 37)"><stop stop-color="#FFD73A"/><stop offset=".976" stop-color="#FFA218"/></radialGradient><linearGradient id="b" x1="23.075" x2="23.283" y1="10.845" y2="48" gradientUnits="userSpaceOnUse"><stop stop-color="#FEF7E0"/><stop offset=".844" stop-color="#FFE68D" stop-opacity=".01"/></linearGradient><radialGradient id="c" cx="0" cy="0" r="1" gradientUnits="userSpaceOnUse" gradientTransform="rotate(94.507 5.656 47.618) scale(15.4082)"><stop stop-color="#FF3743" stop-opacity=".55"/><stop offset=".652" stop-color="#FF7355" stop-opacity=".295"/><stop offset="1" stop-color="#FFB96A" stop-opacity="0"/></radialGradient><radialGradient id="d" cx="0" cy="0" r="1" gradientUnits="userSpaceOnUse" gradientTransform="rotate(94.507 -10.965 32.427) scale(15.4082)"><stop stop-color="#FF3743" stop-opacity=".55"/><stop offset=".652" stop-color="#FF7355" stop-opacity=".295"/><stop offset="1" stop-color="#FFB96A" stop-opacity="0"/></radialGradient></defs></svg>