<svg width="74" height="74" viewBox="0 0 74 74" fill="none" xmlns="http://www.w3.org/2000/svg">
<path d="M72 37C72 56.33 56.33 72 37 72C17.67 72 2 56.33 2 37C2 17.67 17.67 2 37 2C56.33 2 72 17.67 72 37Z" fill="url(#paint0_radial)" stroke="white" stroke-width="4"/>
<path fill-rule="evenodd" clip-rule="evenodd" d="M36.8707 63.4136C51.3872 63.4136 63.155 51.6457 63.155 37.1293C63.155 22.6129 51.3872 10.845 36.8707 10.845C22.3543 10.845 10.5864 22.6129 10.5864 37.1293C10.5864 51.6457 22.3543 63.4136 36.8707 63.4136Z" fill="url(#paint1_linear)" fill-opacity="0.4" style="mix-blend-mode:soft-light"/>
<mask id="path-3-inside-1" fill="white">
<path fill-rule="evenodd" clip-rule="evenodd" d="M55.2914 17.5932C56.1336 17.2656 57.0818 17.6827 57.4094 18.5248C57.7371 19.3669 57.32 20.3152 56.4778 20.6428C52.9379 22.02 49.7472 24.0182 47.0164 26.537C46.3522 27.1497 45.3171 27.1079 44.7045 26.4437C44.0918 25.7794 44.1336 24.7443 44.7978 24.1317C47.8282 21.3366 51.3686 19.1193 55.2914 17.5932Z"/>
</mask>
<path fill-rule="evenodd" clip-rule="evenodd" d="M55.2914 17.5932C56.1336 17.2656 57.0818 17.6827 57.4094 18.5248C57.7371 19.3669 57.32 20.3152 56.4778 20.6428C52.9379 22.02 49.7472 24.0182 47.0164 26.537C46.3522 27.1497 45.3171 27.1079 44.7045 26.4437C44.0918 25.7794 44.1336 24.7443 44.7978 24.1317C47.8282 21.3366 51.3686 19.1193 55.2914 17.5932Z" fill="#985D1B"/>
<path d="M55.2914 17.5932L54.9289 16.6612L55.2914 17.5932ZM56.4778 20.6428L56.1153 19.7109L56.4778 20.6428ZM47.0164 26.537L47.6944 27.2721L47.6944 27.2721L47.0164 26.537ZM44.7978 24.1317L45.4758 24.8668L45.4758 24.8668L44.7978 24.1317ZM55.654 18.5252C55.9814 18.3978 56.3501 18.56 56.4775 18.8874L58.3414 18.1623C57.8136 16.8054 56.2857 16.1334 54.9289 16.6612L55.654 18.5252ZM56.4775 18.8874C56.6049 19.2148 56.4427 19.5835 56.1153 19.7109L56.8404 21.5748C58.1972 21.0469 58.8693 19.5191 58.3414 18.1623L56.4775 18.8874ZM56.1153 19.7109C52.4592 21.1332 49.1614 23.1981 46.3384 25.8019L47.6944 27.2721C50.333 24.8383 53.4166 22.9067 56.8404 21.5748L56.1153 19.7109ZM46.3384 25.8019C46.0802 26.0401 45.6777 26.0239 45.4395 25.7657L43.9694 27.1217C44.9565 28.1918 46.6243 28.2592 47.6944 27.2721L46.3384 25.8019ZM45.4395 25.7657C45.2013 25.5074 45.2176 25.105 45.4758 24.8668L44.1198 23.3966C43.0497 24.3837 42.9823 26.0515 43.9694 27.1217L45.4395 25.7657ZM45.4758 24.8668C48.414 22.1567 51.8474 20.006 55.654 18.5252L54.9289 16.6612C50.8898 18.2326 47.2423 20.5166 44.1198 23.3966L45.4758 24.8668Z" fill="#7E4E18" mask="url(#path-3-inside-1)"/>
<mask id="path-5-inside-2" fill="white">
<path fill-rule="evenodd" clip-rule="evenodd" d="M20.5537 17.4315C19.7231 17.0757 18.7613 17.4607 18.4055 18.2913C18.0497 19.1219 18.4347 20.0837 19.2653 20.4395C22.7568 21.9351 25.8784 24.0397 28.5227 26.6491C29.1659 27.2837 30.2018 27.2768 30.8365 26.6336C31.4712 25.9904 31.4643 24.9545 30.8211 24.3199C27.8866 21.4243 24.4229 19.0889 20.5537 17.4315Z"/>
</mask>
<path fill-rule="evenodd" clip-rule="evenodd" d="M20.5537 17.4315C19.7231 17.0757 18.7613 17.4607 18.4055 18.2913C18.0497 19.1219 18.4347 20.0837 19.2653 20.4395C22.7568 21.9351 25.8784 24.0397 28.5227 26.6491C29.1659 27.2837 30.2018 27.2768 30.8365 26.6336C31.4712 25.9904 31.4643 24.9545 30.8211 24.3199C27.8866 21.4243 24.4229 19.0889 20.5537 17.4315Z" fill="#985D1B"/>
<path d="M20.5537 17.4315L20.16 18.3508L20.5537 17.4315ZM19.2653 20.4395L18.8715 21.3587L18.8715 21.3587L19.2653 20.4395ZM28.5227 26.6491L27.8203 27.3609L27.8203 27.3609L28.5227 26.6491ZM30.8211 24.3199L31.5235 23.6081L30.8211 24.3199ZM20.9475 16.5123C19.6092 15.9391 18.0596 16.5592 17.4863 17.8975L19.3248 18.685C19.4631 18.3621 19.837 18.2124 20.16 18.3508L20.9475 16.5123ZM17.4863 17.8975C16.9131 19.2358 17.5332 20.7854 18.8715 21.3587L19.659 19.5202C19.3361 19.3819 19.1864 19.008 19.3248 18.685L17.4863 17.8975ZM18.8715 21.3587C22.2485 22.8052 25.2653 24.8396 27.8203 27.3609L29.2251 25.9373C26.4915 23.2398 23.2651 21.0649 19.659 19.5202L18.8715 21.3587ZM27.8203 27.3609C28.8567 28.3834 30.5257 28.3723 31.5483 27.336L30.1247 25.9313C29.8779 26.1813 29.4752 26.184 29.2251 25.9373L27.8203 27.3609ZM31.5483 27.336C32.5709 26.2997 32.5598 24.6306 31.5235 23.6081L30.1187 25.0317C30.3688 25.2784 30.3715 25.6812 30.1247 25.9313L31.5483 27.336ZM31.5235 23.6081C28.4998 20.6244 24.9313 18.2188 20.9475 16.5123L20.16 18.3508C23.9145 19.959 27.2735 22.2241 30.1187 25.0317L31.5235 23.6081Z" fill="#7E4E18" mask="url(#path-5-inside-2)"/>
<path d="M30.6069 32.8707C30.6069 34.8037 29.0399 36.3707 27.1069 36.3707C25.1739 36.3707 23.6069 34.8037 23.6069 32.8707C23.6069 30.9377 25.1739 29.3707 27.1069 29.3707C29.0399 29.3707 30.6069 30.9377 30.6069 32.8707Z" fill="#985D1B" stroke="#7E4E18"/>
<path d="M51.6069 32.8707C51.6069 34.8037 50.0399 36.3707 48.1069 36.3707C46.1739 36.3707 44.6069 34.8037 44.6069 32.8707C44.6069 30.9377 46.1739 29.3707 48.1069 29.3707C50.0399 29.3707 51.6069 30.9377 51.6069 32.8707Z" fill="#985D1B" stroke="#7E4E18"/>
<path d="M22.3436 56.2688C25.6468 51.3097 30.5784 46.5 37.2557 46.5C43.973 46.5 49.0452 51.3666 52.4718 56.3558C52.8413 56.8939 52.9326 57.3979 52.864 57.8273C52.7945 58.2628 52.5532 58.6658 52.182 58.9794C51.4366 59.6091 50.2075 59.8407 49.0503 59.2001C45.4254 57.1937 41.1643 55.4517 37.2557 55.4517C33.4221 55.4517 29.3304 57.127 25.8468 59.0834C24.6932 59.7313 23.4489 59.5134 22.6845 58.8893C22.3042 58.5788 22.0541 58.1779 21.9764 57.7434C21.8998 57.3154 21.9823 56.8112 22.3436 56.2688Z" fill="#985D1B" stroke="#7E4E18"/>
<defs>
<radialGradient id="paint0_radial" cx="0" cy="0" r="1" gradientUnits="userSpaceOnUse" gradientTransform="translate(37 37) rotate(90) scale(41)">
<stop stop-color="#FFD73A"/>
<stop offset="0.97575" stop-color="#FFA218"/>
</radialGradient>
<linearGradient id="paint1_linear" x1="22.7919" y1="10.845" x2="23" y2="48" gradientUnits="userSpaceOnUse">
<stop stop-color="#FEF7E0"/>
<stop offset="0.843591" stop-color="#FFE68D" stop-opacity="0.01"/>
</linearGradient>
</defs>
</svg>
