<svg xmlns="http://www.w3.org/2000/svg" width="74" height="74" fill="none" viewBox="0 0 74 74"><path fill="url(#a)" stroke="#fff" stroke-width="4" d="M72 37c0 19.33-15.67 35-35 35S2 56.33 2 37 17.67 2 37 2s35 15.67 35 35z"/><path fill="url(#b)" fill-opacity=".4" fill-rule="evenodd" d="M36.87 63.414c14.517 0 26.285-11.768 26.285-26.285 0-14.516-11.768-26.284-26.284-26.284-14.517 0-26.285 11.768-26.285 26.284 0 14.517 11.768 26.285 26.285 26.285z" clip-rule="evenodd" style="mix-blend-mode:soft-light"/><path fill="#985D1B" stroke="#7E4E18" d="M19.755 46.54a1 1 0 1 1 1.49-1.334 19.944 19.944 0 0 0 14.906 6.665 19.944 19.944 0 0 0 14.907-6.666 1 1 0 1 1 1.49 1.334A21.943 21.943 0 0 1 36.15 53.87a21.943 21.943 0 0 1-16.396-7.331zM49.65 30.87a3.5 3.5 0 1 1-7 0 3.5 3.5 0 0 1 7 0zM23.25 31.17a1 1 0 1 1-1.2-1.6 8.313 8.313 0 0 1 5.1-1.7c1.884 0 3.594.57 5.1 1.7a1 1 0 1 1-1.2 1.6 6.313 6.313 0 0 0-3.9-1.3c-1.45 0-2.739.43-3.9 1.3z"/><defs><radialGradient id="a" cx="0" cy="0" r="1" gradientUnits="userSpaceOnUse" gradientTransform="matrix(0 41 -41 0 37 37)"><stop stop-color="#FFD73A"/><stop offset=".976" stop-color="#FFA218"/></radialGradient><linearGradient id="b" x1="22.792" x2="23" y1="10.845" y2="48" gradientUnits="userSpaceOnUse"><stop stop-color="#FEF7E0"/><stop offset=".844" stop-color="#FFE68D" stop-opacity=".01"/></linearGradient></defs></svg>