<svg xmlns="http://www.w3.org/2000/svg" width="74" height="74" fill="none" viewBox="0 0 74 74"><path fill="url(#a)" stroke="#fff" stroke-width="4" d="M72 37c0 19.33-15.67 35-35 35S2 56.33 2 37 17.67 2 37 2s35 15.67 35 35z"/><path fill="url(#b)" fill-opacity=".4" fill-rule="evenodd" d="M36.87 63.414c14.517 0 26.285-11.768 26.285-26.285 0-14.516-11.768-26.284-26.284-26.284-14.517 0-26.285 11.768-26.285 26.284 0 14.517 11.768 26.285 26.285 26.285z" clip-rule="evenodd" style="mix-blend-mode:soft-light"/><path fill="#985D1B" stroke="#7E4E18" d="M52.97 42.368a22.323 22.323 0 0 1-3.474 3.918c-2.747 2.444-6.884 4.873-12.484 4.873s-9.736-2.43-12.485-4.873a22.323 22.323 0 0 1-3.473-3.918 136.527 136.527 0 0 0 4.716.786c3.367.5 7.646 1.005 11.242 1.005 3.596 0 7.875-.504 11.242-1.005a138.499 138.499 0 0 0 4.717-.786zM50.499 27a3.5 3.5 0 1 1-7 0 3.5 3.5 0 0 1 7 0zM30.499 27a3.5 3.5 0 1 1-7 0 3.5 3.5 0 0 1 7 0z"/><path fill="url(#c)" stroke="#AD0030" d="M29.052 54.2l1.374-8.7h13.146l1.373 8.7c.772 4.883-3.002 9.3-7.946 9.3s-8.718-4.417-7.947-9.3z"/><defs><radialGradient id="a" cx="0" cy="0" r="1" gradientUnits="userSpaceOnUse" gradientTransform="matrix(0 41 -41 0 37 37)"><stop stop-color="#FFD73A"/><stop offset=".976" stop-color="#FFA218"/></radialGradient><linearGradient id="b" x1="22.792" x2="23" y1="10.845" y2="48" gradientUnits="userSpaceOnUse"><stop stop-color="#FEF7E0"/><stop offset=".844" stop-color="#FFE68D" stop-opacity=".01"/></linearGradient><linearGradient id="c" x1="28.398" x2="28.398" y1="45" y2="64" gradientUnits="userSpaceOnUse"><stop stop-color="#8C5619"/><stop offset=".086" stop-color="#BD0034"/><stop offset=".238" stop-color="#E5003F"/><stop offset=".459" stop-color="#FF225F"/><stop offset=".77" stop-color="#FF3970"/><stop offset="1" stop-color="#FF1959"/></linearGradient></defs></svg>