<svg xmlns="http://www.w3.org/2000/svg" width="78" height="74" fill="none" viewBox="0 0 78 74"><path fill="url(#a)" stroke="#fff" stroke-width="4" d="M72 37c0 19.33-15.67 35-35 35S2 56.33 2 37 17.67 2 37 2s35 15.67 35 35z"/><path fill="url(#b)" fill-opacity=".4" fill-rule="evenodd" d="M36.87 63.414c14.517 0 26.285-11.768 26.285-26.285 0-14.516-11.768-26.284-26.284-26.284-14.517 0-26.285 11.768-26.285 26.284 0 14.517 11.768 26.285 26.285 26.285z" clip-rule="evenodd" style="mix-blend-mode:soft-light"/><path fill="#985D1B" stroke="#7E4E18" d="M54.75 31a1 1 0 1 1-2 0 5 5 0 0 0-10 0 1 1 0 1 1-2 0 7 7 0 1 1 14 0zM33.25 31a1 1 0 1 1-2 0 5 5 0 0 0-10 0 1 1 0 1 1-2 0 7 7 0 1 1 14 0zM40.432 45.843l-.007.001h-.003a.3.3 0 0 0-.037.005c-.025.004-.08.011-.135.026a.607.607 0 0 0-.146.06.512.512 0 0 0 .006.892c.056.032.11.05.142.061l.036.011.037.006 2.008.319c1.444.242 2.324 1.48 2.08 2.701-.125.627-.534 1.192-1.15 1.548-2.328 1.348-4.927 2.027-7.777 2.027-.508 0-.841-.367-.841-.727s.333-.726.841-.726c2.511 0 4.786-.59 6.843-1.781a.878.878 0 0 0 .425-.586c.077-.386-.172-.647-.329-.76a1.318 1.318 0 0 0-.543-.222l-.011-.002-.012-.002-1.21-.144h-.004c-.621-.069-1.331-.3-1.872-.673-.537-.37-.851-.837-.851-1.388 0-.749.309-1.212.774-1.541.493-.35 1.174-.554 1.902-.695l.737-.107c.164-.004.47-.028.759-.118.156-.048.346-.127.505-.263a.866.866 0 0 0 .315-.666c0-.483-.3-.763-.552-.912a2.368 2.368 0 0 0-.339-.16l-.082-.032a1.665 1.665 0 0 1-.124-.051c-.323-.157-.618-.282-2.08-.614-.247-.057-.44-.11-.635-.163-.478-.13-.958-.26-2.242-.444-.356-.051-.625-.201-.776-.375a.597.597 0 0 1-.12-.6c.092-.301.464-.535 1.125-.48.89.072 2.043.29 3.144.588 1.107.298 2.116.664 2.735 1.015 1.434.814 2.004 2.042 1.617 3.092-.254.693-.846 1.279-2.07 1.54l-2.083.34z"/><path fill="url(#c)" fill-rule="evenodd" d="M49.955 44.351a8.012 8.012 0 0 0-.15.42l-.013.036c-1.159 3.597.145 8.496 6.972 17.872 10.518-2.309 15.95-5.06 17.374-8.701 1.423-3.641-.443-7.764-4.168-9.21a7.298 7.298 0 0 0-6.293.467 7.254 7.254 0 0 0-4.796-5c-3.62-1.177-7.553.604-8.926 4.116z" clip-rule="evenodd"/><path stroke="#BD1111" d="M49.955 44.351a8.012 8.012 0 0 0-.15.42l-.013.036c-1.159 3.597.145 8.496 6.972 17.872 10.518-2.309 15.95-5.06 17.374-8.701 1.423-3.641-.443-7.764-4.168-9.21a7.298 7.298 0 0 0-6.293.467 7.254 7.254 0 0 0-4.4-4.86 7.512 7.512 0 0 0-.396-.14c-3.62-1.177-7.553.604-8.926 4.116"/><defs><radialGradient id="a" cx="0" cy="0" r="1" gradientUnits="userSpaceOnUse" gradientTransform="matrix(0 41 -41 0 37 37)"><stop stop-color="#FFD73A"/><stop offset=".976" stop-color="#FFA218"/></radialGradient><linearGradient id="b" x1="22.792" x2="23" y1="10.845" y2="48" gradientUnits="userSpaceOnUse"><stop stop-color="#FEF7E0"/><stop offset=".844" stop-color="#FFE68D" stop-opacity=".01"/></linearGradient><linearGradient id="c" x1="52.004" x2="45.206" y1="38" y2="58.923" gradientUnits="userSpaceOnUse"><stop stop-color="#FF2B2B"/><stop offset="1" stop-color="#CF0000"/></linearGradient></defs></svg>