<svg xmlns="http://www.w3.org/2000/svg" width="74" height="74" fill="none" viewBox="0 0 74 74"><path fill="url(#a)" stroke="#fff" stroke-width="4" d="M72 37c0 19.33-15.67 35-35 35S2 56.33 2 37 17.67 2 37 2s35 15.67 35 35z"/><path fill="url(#b)" fill-opacity=".4" fill-rule="evenodd" d="M36.87 63.414c14.517 0 26.285-11.768 26.285-26.285 0-14.516-11.768-26.284-26.284-26.284-14.517 0-26.285 11.768-26.285 26.284 0 14.517 11.768 26.285 26.285 26.285z" clip-rule="evenodd" style="mix-blend-mode:soft-light"/><path fill="#985D1B" fill-rule="evenodd" d="M18 30.5a1.5 1.5 0 0 0 1.5 1.5h11a1.5 1.5 0 0 0 0-3h-11a1.5 1.5 0 0 0-1.5 1.5zm24 0a1.5 1.5 0 0 0 1.5 1.5h11a1.5 1.5 0 0 0 0-3h-11a1.5 1.5 0 0 0-1.5 1.5z" clip-rule="evenodd"/><path fill="#7E4E18" d="M19.5 31.5a1 1 0 0 1-1-1h-1a2 2 0 0 0 2 2v-1zm11 0h-11v1h11v-1zm1-1a1 1 0 0 1-1 1v1a2 2 0 0 0 2-2h-1zm-1-1a1 1 0 0 1 1 1h1a2 2 0 0 0-2-2v1zm-11 0h11v-1h-11v1zm-1 1a1 1 0 0 1 1-1v-1a2 2 0 0 0-2 2h1zm25 1a1 1 0 0 1-1-1h-1a2 2 0 0 0 2 2v-1zm11 0h-11v1h11v-1zm1-1a1 1 0 0 1-1 1v1a2 2 0 0 0 2-2h-1zm-1-1a1 1 0 0 1 1 1h1a2 2 0 0 0-2-2v1zm-11 0h11v-1h-11v1zm-1 1a1 1 0 0 1 1-1v-1a2 2 0 0 0-2 2h1z"/><path fill="#985D1B" stroke="#7E4E18" d="M26.87 50.645a1 1 0 1 1 0-2h20a1 1 0 1 1 0 2h-20z"/><defs><radialGradient id="a" cx="0" cy="0" r="1" gradientUnits="userSpaceOnUse" gradientTransform="matrix(0 41 -41 0 37 37)"><stop stop-color="#FFD73A"/><stop offset=".976" stop-color="#FFA218"/></radialGradient><linearGradient id="b" x1="22.792" x2="23" y1="10.845" y2="48" gradientUnits="userSpaceOnUse"><stop stop-color="#FEF7E0"/><stop offset=".844" stop-color="#FFE68D" stop-opacity=".01"/></linearGradient></defs></svg>