<svg xmlns="http://www.w3.org/2000/svg" width="74" height="74" fill="none" viewBox="0 0 74 74"><path fill="url(#a)" stroke="#fff" stroke-width="4" d="M72 37c0 19.33-15.67 35-35 35S2 56.33 2 37 17.67 2 37 2s35 15.67 35 35z"/><path fill="url(#b)" fill-opacity=".4" fill-rule="evenodd" d="M36.87 63.414c14.517 0 26.285-11.768 26.285-26.285 0-14.516-11.768-26.284-26.284-26.284-14.517 0-26.285 11.768-26.285 26.284 0 14.517 11.768 26.285 26.285 26.285z" clip-rule="evenodd" style="mix-blend-mode:soft-light"/><path fill="#985D1B" stroke="#7E4E18" d="M14.92 17.287a.975.975 0 0 1-.238-1.369 1.007 1.007 0 0 1 1.394-.236c4.425 3.098 10.243 4.85 16.426 4.85.555 0 .998.445.998.984 0 .539-.443.984-.998.984-6.609 0-12.827-1.884-17.582-5.213zM59.08 17.287a.975.975 0 0 0 .238-1.369 1.007 1.007 0 0 0-1.394-.236c-4.425 3.098-10.243 4.85-16.426 4.85a.991.991 0 0 0-.998.984c0 .539.443.984.998.984 6.609 0 12.827-1.884 17.582-5.213zM30 29a3.5 3.5 0 1 1-7 0 3.5 3.5 0 0 1 7 0zM50.5 29a3.5 3.5 0 1 1-7 0 3.5 3.5 0 0 1 7 0z"/><path fill="url(#c)" d="M15 42.54c1 1.46 6.5 4.517 11.5 0 5-4.516 10.5-1.003 10.5-1.003s5.5-3.513 10.5 1.004c5 4.516 10.5 1.459 11.5 0-.5 6.022-8.5 19.07-22 5.52-13.5 13.55-21.5.502-22-5.52z"/><defs><radialGradient id="a" cx="0" cy="0" r="1" gradientUnits="userSpaceOnUse" gradientTransform="matrix(0 41 -41 0 37 37)"><stop stop-color="#FFD73A"/><stop offset=".976" stop-color="#FFA218"/></radialGradient><linearGradient id="b" x1="22.792" x2="23" y1="10.845" y2="48" gradientUnits="userSpaceOnUse"><stop stop-color="#FEF7E0"/><stop offset=".844" stop-color="#FFE68D" stop-opacity=".01"/></linearGradient><linearGradient id="c" x1="15" x2="15" y1="40.235" y2="54" gradientUnits="userSpaceOnUse"><stop stop-color="#3E3E3E"/><stop offset="1" stop-color="#161616"/></linearGradient></defs></svg>