<svg xmlns="http://www.w3.org/2000/svg" width="74" height="74" fill="none" viewBox="0 0 74 74"><path fill="url(#a)" stroke="#fff" stroke-width="4" d="M72 37c0 19.33-15.67 35-35 35S2 56.33 2 37 17.67 2 37 2s35 15.67 35 35z"/><path fill="url(#b)" fill-opacity=".4" fill-rule="evenodd" d="M36.87 63.414c14.517 0 26.285-11.768 26.285-26.285 0-14.516-11.768-26.284-26.284-26.284-14.517 0-26.285 11.768-26.285 26.284 0 14.517 11.768 26.285 26.285 26.285z" clip-rule="evenodd" style="mix-blend-mode:soft-light"/><path fill="#985D1B" stroke="#7E4E18" d="M16.676 43.069a1 1 0 1 1 1.649-1.132 21.972 21.972 0 0 0 18.15 9.563 21.971 21.971 0 0 0 18.15-9.565 1 1 0 0 1 1.65 1.132 23.97 23.97 0 0 1-19.8 10.433 23.971 23.971 0 0 1-19.8-10.431zM34.475 30.5a1 1 0 1 1-2 0 5 5 0 0 0-10 0 1 1 0 1 1-2 0 7 7 0 1 1 14 0zM54.475 30.5a1 1 0 1 1-2 0 5 5 0 0 0-10 0 1 1 0 1 1-2 0 7 7 0 1 1 14 0z"/><defs><radialGradient id="a" cx="0" cy="0" r="1" gradientUnits="userSpaceOnUse" gradientTransform="matrix(0 41 -41 0 37 37)"><stop stop-color="#FFD73A"/><stop offset=".976" stop-color="#FFA218"/></radialGradient><linearGradient id="b" x1="22.792" x2="23" y1="10.845" y2="48" gradientUnits="userSpaceOnUse"><stop stop-color="#FEF7E0"/><stop offset=".844" stop-color="#FFE68D" stop-opacity=".01"/></linearGradient></defs></svg>