<svg xmlns="http://www.w3.org/2000/svg" width="74" height="74" fill="none" viewBox="0 0 74 74"><path fill="url(#a)" stroke="#fff" stroke-width="4" d="M72 37c0 19.33-15.67 35-35 35S2 56.33 2 37 17.67 2 37 2s35 15.67 35 35z"/><path fill="url(#b)" fill-opacity=".4" fill-rule="evenodd" d="M36.87 63.414c14.517 0 26.285-11.768 26.285-26.285 0-14.516-11.768-26.284-26.284-26.284-14.517 0-26.285 11.768-26.285 26.284 0 14.517 11.768 26.285 26.285 26.285z" clip-rule="evenodd" style="mix-blend-mode:soft-light"/><path fill="#985D1B" stroke="#7E4E18" d="M40.798 29.887a1.001 1.001 0 0 1 1.845-.772 5.501 5.501 0 0 0 10.155.001 1 1 0 1 1 1.845.772 7.5 7.5 0 0 1-13.845-.001zM19.353 29.887a1 1 0 0 1 1.845-.772 5.501 5.501 0 0 0 10.155.001 1 1 0 1 1 1.845.772 7.5 7.5 0 0 1-13.845-.001zM46.28 50.063c.454.24.68.89.383 1.498-.298.606-.94.799-1.393.56-5.217-2.756-11.288-2.801-16.727-.296-.527.243-1.084-.007-1.274-.547-.202-.576.08-1.27.637-1.527 6-2.764 12.668-2.7 18.374.312z"/><path fill="url(#c)" stroke="#2D6DAE" d="M15.613 33.7l.437-.245-.251-.447-.441.262.255.43zm0 0l.437-.244.001.002.004.006.013.024a21.433 21.433 0 0 1 .24.442 59.247 59.247 0 0 1 2.582 5.506c.667 1.649 1.299 3.465 1.68 5.189.379 1.71.525 3.39.165 4.734-1.377 5.138-6.367 8.336-11.204 7.04-4.836-1.296-7.56-6.56-6.183-11.699.36-1.344 1.327-2.726 2.51-4.018 1.193-1.301 2.648-2.558 4.05-3.652a59.224 59.224 0 0 1 5.418-3.74l.023-.015.007-.003.001-.001.256.429z"/><defs><radialGradient id="a" cx="0" cy="0" r="1" gradientUnits="userSpaceOnUse" gradientTransform="matrix(0 41 -41 0 37 37)"><stop stop-color="#FFD73A"/><stop offset=".976" stop-color="#FFA218"/></radialGradient><linearGradient id="b" x1="22.792" x2="23" y1="10.845" y2="48" gradientUnits="userSpaceOnUse"><stop stop-color="#FEF7E0"/><stop offset=".844" stop-color="#FFE68D" stop-opacity=".01"/></linearGradient><linearGradient id="c" x1="7.403" x2="1.45" y1="31.5" y2="53.716" gradientUnits="userSpaceOnUse"><stop stop-color="#5FC2FF"/><stop offset="1" stop-color="#116CCC"/></linearGradient></defs></svg>