<svg xmlns="http://www.w3.org/2000/svg" width="74" height="74" fill="none" viewBox="0 0 74 74"><path fill="url(#a)" stroke="#fff" stroke-width="4" d="M72 37c0 19.33-15.67 35-35 35S2 56.33 2 37 17.67 2 37 2s35 15.67 35 35z"/><path fill="url(#b)" fill-opacity=".4" fill-rule="evenodd" d="M36.87 63.414c14.517 0 26.285-11.768 26.285-26.285 0-14.516-11.768-26.284-26.284-26.284-14.517 0-26.285 11.768-26.285 26.284 0 14.517 11.768 26.285 26.285 26.285z" clip-rule="evenodd" style="mix-blend-mode:soft-light"/><path fill="#985D1B" stroke="#7E4E18" d="M35.376 56.703a1 1 0 1 1 .312-1.975 19.947 19.947 0 0 0 15.99-4.437 1 1 0 0 1 1.286 1.532 21.947 21.947 0 0 1-17.588 4.88z"/><path fill="url(#c)" fill-rule="evenodd" d="M55.21 17.384c-6.65 0-14.169 3.409-17.793 4.063a6.029 6.029 0 0 1-.975.108c-3.07-.038-11.445-4.17-18.768-4.17-.55 0-1.116.008-1.692.024C8.833 17.613 0 18.977 0 18.977v5.538s2.427-.304 3.262 4.02c.29 1.501.47 3.981 1.108 6.579.465 1.89 1.172 3.842 2.34 5.525 1.853 2.666 4.863 4.659 9.902 4.659 3.881 0 6.725-.815 8.834-2.039 4.736-2.748 5.777-7.561 6.564-9.87 1.13-3.315 2.335-4.508 4.432-4.56.61.015 1.147.127 1.627.36 1.166.567 2.005 1.851 2.805 4.2 1.138 3.338 2.807 11.909 15.399 11.909 5.038 0 8.049-1.992 9.9-4.66 1.17-1.682 1.876-3.635 2.341-5.524.639-2.598.819-5.078 1.109-6.58.834-4.323 3.261-4.02 3.261-4.02v-5.537s-10.316-1.593-17.673-1.593z" clip-rule="evenodd"/><mask id="d" width="73" height="29" x="0" y="17" maskUnits="userSpaceOnUse"><path fill="#fff" fill-rule="evenodd" d="M55.21 17.384c-6.65 0-14.169 3.409-17.793 4.063a6.029 6.029 0 0 1-.975.108c-3.07-.038-11.445-4.17-18.768-4.17-.55 0-1.116.008-1.692.024C8.833 17.613 0 18.977 0 18.977v5.538s2.427-.304 3.262 4.02c.29 1.501.47 3.981 1.108 6.579.465 1.89 1.172 3.842 2.34 5.525 1.853 2.666 4.863 4.659 9.902 4.659 3.881 0 6.725-.815 8.834-2.039 4.736-2.748 5.777-7.561 6.564-9.87 1.13-3.315 2.335-4.508 4.432-4.56.61.015 1.147.127 1.627.36 1.166.567 2.005 1.851 2.805 4.2 1.138 3.338 2.807 11.909 15.399 11.909 5.038 0 8.049-1.992 9.9-4.66 1.17-1.682 1.876-3.635 2.341-5.524.639-2.598.819-5.078 1.109-6.58.834-4.323 3.261-4.02 3.261-4.02v-5.537s-10.316-1.593-17.673-1.593z" clip-rule="evenodd"/></mask><path fill="#333" fill-rule="evenodd" d="M7.868 21.813c.395-.186.88-.334 1.467-.452 1.766-.352 4.455-.427 8.41-.427 4.559 0 8.619 1.216 10.908 2.812a6.33 6.33 0 0 1 1.257 1.119c.482.579.73 1.18.699 1.769-.005.106-.02.212-.044.317l-.124.546c-.778 3.433-1.79 7.906-4.446 11.06-1.926 2.29-4.719 3.886-8.914 3.886-1.334 0-2.494-.155-3.503-.447a8.496 8.496 0 0 1-1.421-.548 7.362 7.362 0 0 1-2.372-1.854c-2.208-2.6-2.828-6.773-3.137-11.633-.053-.835-.097-1.69-.138-2.56l-.05-1.095-.03-.667c.144-.839.581-1.422 1.438-1.826zm38.263.986a17.447 17.447 0 0 1 2.545-.947c1.96-.57 4.258-.918 6.698-.918 8.117 0 10.904.313 11.316 2.705l-.02.458c-.056 1.228-.111 2.43-.182 3.592-.031.51-.065 1.012-.104 1.506-.34 4.33-1.031 8.021-3.05 10.399-1.529 1.801-3.819 2.849-7.296 2.849-2.562 0-4.6-.595-6.238-1.58a10.347 10.347 0 0 1-1.575-1.166 11.303 11.303 0 0 1-1.1-1.14c-2.64-3.136-3.657-7.576-4.433-11.001l-.05-.223-.088-.382a1.894 1.894 0 0 1-.04-.568c.072-.903.78-1.82 1.953-2.637.48-.335 1.04-.653 1.664-.947z" clip-rule="evenodd"/><mask id="e" width="61" height="23" x="6" y="20" maskUnits="userSpaceOnUse"><path fill="#fff" fill-rule="evenodd" d="M7.868 21.813c.395-.186.88-.334 1.467-.452 1.766-.352 4.455-.427 8.41-.427 4.559 0 8.619 1.216 10.908 2.812a6.33 6.33 0 0 1 1.257 1.119c.482.579.73 1.18.699 1.769-.005.106-.02.212-.044.317l-.124.546c-.778 3.433-1.79 7.906-4.446 11.06-1.926 2.29-4.719 3.886-8.914 3.886-1.334 0-2.494-.155-3.503-.447a8.496 8.496 0 0 1-1.421-.548 7.362 7.362 0 0 1-2.372-1.854c-2.208-2.6-2.828-6.773-3.137-11.633-.053-.835-.097-1.69-.138-2.56l-.05-1.095-.03-.667c.144-.839.581-1.422 1.438-1.826zm38.263.986a17.447 17.447 0 0 1 2.545-.947c1.96-.57 4.258-.918 6.698-.918 8.117 0 10.904.313 11.316 2.705l-.02.458c-.056 1.228-.111 2.43-.182 3.592-.031.51-.065 1.012-.104 1.506-.34 4.33-1.031 8.021-3.05 10.399-1.529 1.801-3.819 2.849-7.296 2.849-2.562 0-4.6-.595-6.238-1.58a10.347 10.347 0 0 1-1.575-1.166 11.303 11.303 0 0 1-1.1-1.14c-2.64-3.136-3.657-7.576-4.433-11.001l-.05-.223-.088-.382a1.894 1.894 0 0 1-.04-.568c.072-.903.78-1.82 1.953-2.637.48-.335 1.04-.653 1.664-.947z" clip-rule="evenodd"/></mask><g mask="url(#e)"><path fill="url(#f)" d="M-15.87 29.485h50v26h-50z" opacity=".282" transform="rotate(-45 -15.87 29.485)"/><path fill="url(#g)" d="M26 19.355h50v26H26z" opacity=".283" transform="rotate(-45 26 19.355)"/></g><defs><radialGradient id="a" cx="0" cy="0" r="1" gradientUnits="userSpaceOnUse" gradientTransform="matrix(0 41 -41 0 37 37)"><stop stop-color="#FFD73A"/><stop offset=".976" stop-color="#FFA218"/></radialGradient><linearGradient id="b" x1="22.792" x2="23" y1="10.845" y2="48" gradientUnits="userSpaceOnUse"><stop stop-color="#FEF7E0"/><stop offset=".844" stop-color="#FFE68D" stop-opacity=".01"/></linearGradient><linearGradient id="c" x2="0" y1="17.384" y2="45.298" gradientUnits="userSpaceOnUse"><stop stop-color="#3E3E3E"/><stop offset="1" stop-color="#161616"/></linearGradient><linearGradient id="f" x1="-15.87" x2="-15.87" y1="29.485" y2="55.485" gradientUnits="userSpaceOnUse"><stop stop-color="#fff" stop-opacity=".01"/><stop offset="1" stop-color="#fff"/></linearGradient><linearGradient id="g" x1="26" x2="26" y1="19.355" y2="45.355" gradientUnits="userSpaceOnUse"><stop stop-color="#fff" stop-opacity=".01"/><stop offset="1" stop-color="#fff"/></linearGradient></defs></svg>