<svg xmlns="http://www.w3.org/2000/svg" width="74" height="74" fill="none" viewBox="0 0 74 74"><path fill="url(#a)" stroke="#fff" stroke-width="4" d="M72 37c0 19.33-15.67 35-35 35S2 56.33 2 37 17.67 2 37 2s35 15.67 35 35z"/><path fill="url(#b)" fill-opacity=".4" fill-rule="evenodd" d="M36.87 63.414c14.517 0 26.285-11.768 26.285-26.285 0-14.516-11.768-26.284-26.284-26.284-14.517 0-26.285 11.768-26.285 26.284 0 14.517 11.768 26.285 26.285 26.285z" clip-rule="evenodd" style="mix-blend-mode:soft-light"/><path fill="#985D1B" stroke="#7E4E18" d="M55 31a1 1 0 1 1-2 0 5 5 0 0 0-10 0 1 1 0 1 1-2 0 7 7 0 1 1 14 0zM33.5 31a1 1 0 1 1-2 0 5 5 0 0 0-10 0 1 1 0 1 1-2 0 7 7 0 1 1 14 0zM55.97 44.258c-.191.314-.434.698-.727 1.133a31.226 31.226 0 0 1-3.736 4.542c-3.302 3.306-8.165 6.567-14.5 6.567-6.336 0-11.203-3.261-14.51-6.567a31.272 31.272 0 0 1-4.467-5.675 139.486 139.486 0 0 0 5.4.837c3.818.515 8.828 1.032 13.57 1.032 4.742 0 9.752-.517 13.569-1.032a139.386 139.386 0 0 0 5.4-.837z"/><path fill="#fff" fill-rule="evenodd" d="M37 50c7.18 0 13-1.565 13-4.326 0 0-6.253.963-13.433.963-4.94.065-12.552-.974-12.552-.974C24.015 48.424 29.82 50 37 50z" clip-rule="evenodd"/><path fill="#FF5C89" fill-rule="evenodd" d="M37.09 56.058c3.874 0 7.021-1.563 7.021-1.563-1.75-1.415-4.093-2.467-7.12-2.467-2.935 0-5.038.94-7.02 2.504 0 0 3.247 1.526 7.12 1.526z" clip-rule="evenodd"/><defs><radialGradient id="a" cx="0" cy="0" r="1" gradientUnits="userSpaceOnUse" gradientTransform="matrix(0 41 -41 0 37 37)"><stop stop-color="#FFD73A"/><stop offset=".976" stop-color="#FFA218"/></radialGradient><linearGradient id="b" x1="22.792" x2="23" y1="10.845" y2="48" gradientUnits="userSpaceOnUse"><stop stop-color="#FEF7E0"/><stop offset=".844" stop-color="#FFE68D" stop-opacity=".01"/></linearGradient></defs></svg>