<svg xmlns="http://www.w3.org/2000/svg" width="61" height="74" fill="none" viewBox="0 0 61 74"><path fill="url(#a)" stroke="#fff" stroke-width="4" d="M45.695 18.312c17.191 18.38 13.28 30.82 9.832 38.243-3.448 7.424-12.363 14.52-24.392 14.52-12.028 0-18.065-3.932-22.857-9.568C3.486 55.873 2 50.023 2 43.163c0-6.86 6.015-16.306 13.059-17.58 0 0-.858 2.088-1.566 4.039.725-1.5 1.787-2.875 3.044-4.039 3.402-3.15 5.94-6.65 7.13-8.839 2.68-4.93 3.374-9.456 0-14.744 0 0 10.536 3.043 15.954 10.31 9.035 12.117 3.996 22.64 3.996 22.64 2.161-3.684 2.078-16.638 2.078-16.638z" stroke-linejoin="round"/><path fill="#F90" d="M41.413 47.423c2.76 2.645 3.943 7.99 1.586 13.004-2.358 5.015-8.029 7.242-12.85 7.23-4.822-.013-8.313-1.904-10.727-4.743-2.415-2.84-3.164-5.787-3.164-9.244 0-3.456 1.608-5.672 2.91-6.668 0 0 0 1.692 1.343 2.984 1.417 1.365 2.866.826 2.866.826s-.272-1.843 1.166-3.81c1.518-2.076 2.553-1.818 4.707-4.944 1.707-2.478.4-7.227-1.635-8.684 0 0 4.87 1.087 7.6 4.75 4.553 6.105 2.727 13.956 2.497 13.956 2.645-.69 3.701-4.657 3.701-4.657z"/><path fill="#FFDC24" d="M34.462 58.05c1.04.995 1.485 3.01.597 4.899-.888 1.89-3.025 2.728-4.842 2.724-1.816-.005-2.85-.854-3.532-1.509-.68-.655-1.357-2.288-.718-3.936.638-1.648 2.957-3.231 3.912-4.2.954-.97.15-2.723-.616-3.272 0 0 1.835.41 2.863 1.79 1.716 2.3 1.028 5.258.941 5.258.997-.26 1.395-1.755 1.395-1.755z"/><defs><linearGradient id="a" x1="30.259" x2="30.259" y1="23.083" y2="86.248" gradientUnits="userSpaceOnUse"><stop stop-color="#F83C00"/><stop offset="1" stop-color="#FF7C03"/></linearGradient></defs></svg>