<svg xmlns="http://www.w3.org/2000/svg" width="80" height="70" fill="none" viewBox="0 0 80 70"><path fill="url(#a)" fill-rule="evenodd" d="M4.34 25.968c.005.398.021.798.05 1.198l.007.1c.762 10.134 8.977 21.01 35.487 37.43C63.731 48.282 74.468 35.92 74.319 25.41c-.15-10.51-8.979-18.884-19.72-18.704-6.212.104-11.698 3.049-15.196 7.543-3.6-4.725-9.391-7.745-15.885-7.636-.379.006-.755.023-1.128.05-10.208.744-18.195 9.166-18.05 19.305z" clip-rule="evenodd"/><path fill="#fff" d="M4.34 25.968l2-.028-2 .028zm.05 1.198l-1.995.14v.005l1.995-.145zm.007.1l-1.995.146v.005l1.995-.15zm35.487 37.43l-1.053 1.701 1.11.688 1.077-.74-1.134-1.648zM74.319 25.41l2-.029-2 .029zM54.599 6.706l.033 2-.033-2zM39.403 14.25l-1.59 1.213 1.573 2.065 1.595-2.05-1.578-1.228zM23.518 6.613l.034 2-.034-2zM2.34 25.996c.006.435.024.872.055 1.31l3.99-.28c-.026-.363-.04-.725-.046-1.086l-4 .056zm.055 1.315l.007.101 3.99-.29-.008-.101-3.99.29zm.008.106c.844 11.227 9.944 22.575 36.428 38.98l2.106-3.4C14.401 46.558 7.071 36.153 6.391 27.116l-3.988.3zm38.615 38.927C52.997 58.1 61.8 50.794 67.606 44.155c5.79-6.62 8.798-12.806 8.713-18.774l-4 .057c.065 4.542-2.222 9.792-7.724 16.084-5.487 6.273-13.977 13.357-25.845 21.527l2.268 3.295zm35.3-40.963c-.165-11.657-9.946-20.873-21.753-20.675l.067 4c9.677-.163 17.554 7.37 17.687 16.732l4-.057zM54.566 4.706c-6.835.115-12.882 3.357-16.74 8.315l3.156 2.457c3.138-4.032 8.063-6.679 13.651-6.772l-.067-4zm-13.571 8.331C37.017 7.82 30.63 4.494 23.484 4.613l.068 4c5.84-.098 11.035 2.616 14.26 6.849l3.182-2.425zm-17.51-8.424c-.416.007-.83.026-1.24.056l.29 3.99c.338-.025.677-.04 1.018-.046l-.067-4zm-1.24.056C11.024 5.486 2.18 14.754 2.34 25.996l4-.057c-.13-9.036 6.999-16.611 16.195-17.28l-.29-3.99z"/><path fill="url(#b)" fill-rule="evenodd" d="M10.64 29.375c.004.316.017.634.039.952l.006.08c.606 8.055 7.351 16.685 29.157 29.686 19.68-13.102 28.553-22.954 28.452-31.31-.101-8.355-6.887-15.03-15.737-14.864-5.117.095-10.917 3.869-13.208 7.922-2.138-4.042-8.304-8.376-12.799-8.641-.991-.103-2.46-.039-3.33.095-9.025 1.387-12.953 7.685-12.58 16.08z" clip-rule="evenodd"/><defs><linearGradient id="a" x1="3" x2="7.294" y1="8.075" y2="67.069" gradientUnits="userSpaceOnUse"><stop stop-color="#FF2B2B"/><stop offset="1" stop-color="#CF0000"/></linearGradient><linearGradient id="b" x1="6.128" x2="5.615" y1="-.591" y2="44.576" gradientUnits="userSpaceOnUse"><stop stop-color="#fff" stop-opacity=".75"/><stop offset="1" stop-color="#F92626" stop-opacity=".09"/></linearGradient></defs></svg>