<svg xmlns="http://www.w3.org/2000/svg" width="74" height="74" fill="none" viewBox="0 0 74 74"><path fill="url(#a)" stroke="#fff" stroke-width="4" d="M72 37c0 19.33-15.67 35-35 35S2 56.33 2 37 17.67 2 37 2s35 15.67 35 35z"/><path fill="url(#b)" fill-opacity=".4" fill-rule="evenodd" d="M36.87 63.414c14.517 0 26.285-11.768 26.285-26.285 0-14.516-11.768-26.284-26.284-26.284-14.517 0-26.285 11.768-26.285 26.284 0 14.517 11.768 26.285 26.285 26.285z" clip-rule="evenodd" style="mix-blend-mode:soft-light"/><path fill="#985D1B" stroke="#7E4E18" d="M30.054 28a3.5 3.5 0 1 1-7 0 3.5 3.5 0 0 1 7 0zM50.679 28a3.5 3.5 0 1 1-7 0 3.5 3.5 0 0 1 7 0z"/><rect width="35.821" height="12.857" x="19.64" y="44.003" fill="#fff" stroke="#7E4E18" rx="5.5"/><path stroke="#9D9D9D" d="M0-.5h12.275" transform="rotate(90.191 -9.512 34.666) skewX(-.093)"/><path stroke="#9D9D9D" d="M0-.5h12.275" transform="rotate(90.191 -6.999 37.172) skewX(-.093)"/><path stroke="#9D9D9D" d="M0-.5h12.275" transform="rotate(90.191 -4.48 39.682) skewX(-.093)"/><path stroke="#9D9D9D" d="M0-.5h12.275" transform="rotate(90.191 -1.966 42.188) skewX(-.093)"/><path stroke="#9D9D9D" d="M0-.5h12.275" transform="rotate(90.191 .548 44.693) skewX(-.093)"/><path stroke="#9D9D9D" d="M50.406 44.294v12.275M19.558 50.636h35.716"/><rect width="34.544" height="11.857" x="20.418" y="44.503" stroke="#7E4E18" stroke-width="2" rx="5"/><defs><radialGradient id="a" cx="0" cy="0" r="1" gradientUnits="userSpaceOnUse" gradientTransform="matrix(0 41 -41 0 37 37)"><stop stop-color="#FFD73A"/><stop offset=".976" stop-color="#FFA218"/></radialGradient><linearGradient id="b" x1="22.792" x2="23" y1="10.845" y2="48" gradientUnits="userSpaceOnUse"><stop stop-color="#FEF7E0"/><stop offset=".844" stop-color="#FFE68D" stop-opacity=".01"/></linearGradient></defs></svg>