<svg xmlns="http://www.w3.org/2000/svg" width="75" height="74" fill="none" viewBox="0 0 75 74"><path fill="url(#a)" stroke="#fff" stroke-width="4" d="M72.412 37c0 19.33-15.67 35-35 35s-35-15.67-35-35 15.67-35 35-35 35 15.67 35 35z"/><path fill="url(#b)" fill-opacity=".4" fill-rule="evenodd" d="M37.283 63.414c14.516 0 26.284-11.768 26.284-26.285 0-14.516-11.768-26.284-26.284-26.284-14.517 0-26.285 11.768-26.285 26.284 0 14.517 11.768 26.285 26.285 26.285z" clip-rule="evenodd" style="mix-blend-mode:soft-light"/><path fill="#985D1B" stroke="#7E4E18" d="M30.202 32.87a3.5 3.5 0 1 1-7 0 3.5 3.5 0 0 1 7 0zM51.202 32.87a3.5 3.5 0 1 1-7 0 3.5 3.5 0 0 1 7 0zM53.202 23.37a1 1 0 0 1 0 2h-10a1 1 0 1 1 0-2h10zM31.702 23.37a1 1 0 0 1 0 2h-10a1 1 0 1 1 0-2h10zM46.623 46.37a1 1 0 1 1 0 2 34.83 34.83 0 0 0-17.909 4.923 1 1 0 1 1-1.024-1.718 36.828 36.828 0 0 1 18.933-5.204z"/><defs><radialGradient id="a" cx="0" cy="0" r="1" gradientUnits="userSpaceOnUse" gradientTransform="matrix(0 41 -41 0 37.412 37)"><stop stop-color="#FFD73A"/><stop offset=".976" stop-color="#FFA218"/></radialGradient><linearGradient id="b" x1="23.204" x2="23.412" y1="10.845" y2="48" gradientUnits="userSpaceOnUse"><stop stop-color="#FEF7E0"/><stop offset=".844" stop-color="#FFE68D" stop-opacity=".01"/></linearGradient></defs></svg>