<svg xmlns="http://www.w3.org/2000/svg" width="74" height="74" fill="none" viewBox="0 0 74 74"><path fill="url(#a)" stroke="#fff" stroke-width="4" d="M72 37c0 19.33-15.67 35-35 35S2 56.33 2 37 17.67 2 37 2s35 15.67 35 35z"/><path fill="url(#b)" fill-opacity=".4" fill-rule="evenodd" d="M36.87 63.414c14.517 0 26.285-11.768 26.285-26.285 0-14.516-11.768-26.284-26.284-26.284-14.517 0-26.285 11.768-26.285 26.284 0 14.517 11.768 26.285 26.285 26.285z" clip-rule="evenodd" style="mix-blend-mode:soft-light"/><path fill="#985D1B" stroke="#7E4E18" d="M30.054 28a3.5 3.5 0 1 1-7 0 3.5 3.5 0 0 1 7 0zM50.679 28a3.5 3.5 0 1 1-7 0 3.5 3.5 0 0 1 7 0zM48.37 49.875c0 1.99-1.209 3.853-3.291 5.241-2.079 1.386-4.98 2.26-8.208 2.26-3.229 0-6.13-.874-8.208-2.26-2.082-1.388-3.292-3.25-3.292-5.24 0-1.99 1.21-3.853 3.292-5.241 2.079-1.386 4.98-2.26 8.208-2.26 3.229 0 6.13.874 8.208 2.26 2.082 1.388 3.292 3.25 3.292 5.24z"/><mask id="c" width="25" height="17" x="24" y="41" maskUnits="userSpaceOnUse"><path fill="#fff" stroke="#fff" d="M48.37 49.875c0 1.99-1.209 3.853-3.291 5.241-2.079 1.386-4.98 2.26-8.208 2.26-3.229 0-6.13-.874-8.208-2.26-2.082-1.388-3.292-3.25-3.292-5.24 0-1.99 1.21-3.853 3.292-5.241 2.079-1.386 4.98-2.26 8.208-2.26 3.229 0 6.13.874 8.208 2.26 2.082 1.388 3.292 3.25 3.292 5.24z"/></mask><defs><radialGradient id="a" cx="0" cy="0" r="1" gradientUnits="userSpaceOnUse" gradientTransform="matrix(0 41 -41 0 37 37)"><stop stop-color="#FFD73A"/><stop offset=".976" stop-color="#FFA218"/></radialGradient><linearGradient id="b" x1="22.792" x2="23" y1="10.845" y2="48" gradientUnits="userSpaceOnUse"><stop stop-color="#FEF7E0"/><stop offset=".844" stop-color="#FFE68D" stop-opacity=".01"/></linearGradient></defs></svg>