<svg xmlns="http://www.w3.org/2000/svg" width="74" height="74" fill="none" viewBox="0 0 74 74"><path fill="url(#a)" stroke="#fff" stroke-width="4" d="M72 37c0 19.33-15.67 35-35 35S2 56.33 2 37 17.67 2 37 2s35 15.67 35 35z"/><path fill="url(#b)" fill-opacity=".4" fill-rule="evenodd" d="M36.87 63.414c14.517 0 26.285-11.768 26.285-26.285 0-14.516-11.768-26.284-26.284-26.284-14.517 0-26.285 11.768-26.285 26.284 0 14.517 11.768 26.285 26.285 26.285z" clip-rule="evenodd" style="mix-blend-mode:soft-light"/><path fill="#985D1B" stroke="#7E4E18" d="M54 50.041a1 1 0 1 1-.56 1.92C49.112 50.7 43.704 50 38 50c-5.706 0-11.115.7-15.444 1.963a1 1 0 0 1-.56-1.92C26.503 48.729 32.096 48 38 48c5.903 0 11.494.728 16 2.041zM41.798 29.887a1.001 1.001 0 0 1 1.845-.772 5.501 5.501 0 0 0 10.155.001 1 1 0 1 1 1.845.772 7.5 7.5 0 0 1-13.845-.001zM20.353 29.887a1 1 0 0 1 1.845-.772 5.501 5.501 0 0 0 10.155.001 1 1 0 1 1 1.845.772 7.5 7.5 0 0 1-13.845-.001z"/><defs><radialGradient id="a" cx="0" cy="0" r="1" gradientUnits="userSpaceOnUse" gradientTransform="matrix(0 41 -41 0 37 37)"><stop stop-color="#FFD73A"/><stop offset=".976" stop-color="#FFA218"/></radialGradient><linearGradient id="b" x1="22.792" x2="23" y1="10.845" y2="48" gradientUnits="userSpaceOnUse"><stop stop-color="#FEF7E0"/><stop offset=".844" stop-color="#FFE68D" stop-opacity=".01"/></linearGradient></defs></svg>