<svg width="74" height="74" viewBox="0 0 74 74" fill="none" xmlns="http://www.w3.org/2000/svg">
<path d="M72 37C72 56.33 56.33 72 37 72C17.67 72 2 56.33 2 37C2 17.67 17.67 2 37 2C56.33 2 72 17.67 72 37Z" fill="url(#paint0_radial)" stroke="white" stroke-width="4"/>
<path fill-rule="evenodd" clip-rule="evenodd" d="M36.8707 63.4136C51.3872 63.4136 63.155 51.6457 63.155 37.1293C63.155 22.6129 51.3872 10.845 36.8707 10.845C22.3543 10.845 10.5864 22.6129 10.5864 37.1293C10.5864 51.6457 22.3543 63.4136 36.8707 63.4136Z" fill="url(#paint1_linear)" fill-opacity="0.4" style="mix-blend-mode:soft-light"/>
<path d="M21.3483 51.4788C23.7884 47.4097 28.6016 41.5 35.9043 41.5C43.2071 41.5 48.0202 47.4097 50.4603 51.4788C50.7718 51.9983 50.6843 52.5134 50.3863 52.8789C50.0815 53.2527 49.5421 53.4825 48.9219 53.3414C45.425 52.5457 40.1802 51.5438 35.9044 51.5438C31.6285 51.5438 26.3836 52.5457 22.8867 53.3414C22.2665 53.4825 21.7272 53.2527 21.4223 52.8789C21.1243 52.5134 21.0368 51.9983 21.3483 51.4788Z" fill="#985D1B" stroke="#7E4E18"/>
<path d="M40.9629 25.9719C40.8885 25.4241 41.2721 24.9199 41.8192 24.8453C42.3662 24.7708 42.8702 25.154 42.9446 25.7016C43.241 27.8834 44.8152 29.7017 46.9794 30.2785C49.1431 30.8551 51.4131 30.0619 52.7561 28.3176C53.0933 27.8797 53.7211 27.7983 54.1584 28.1352C54.5958 28.4723 54.6774 29.1006 54.3402 29.5386C52.5085 31.9175 49.4131 32.9983 46.464 32.2123C43.5143 31.4261 41.3672 28.9475 40.9629 25.9719Z" fill="#985D1B" stroke="#7E4E18"/>
<path d="M19.2783 29.5738C18.9031 29.1677 18.928 28.5346 19.3334 28.1597C19.7387 27.7849 20.3713 27.8097 20.7464 28.2156C22.2408 29.8327 24.5733 30.419 26.6768 29.65C28.78 28.8811 30.1843 26.9292 30.2838 24.73C30.3087 24.1779 30.7763 23.7511 31.3278 23.7762C31.8794 23.8014 32.3067 24.2692 32.2817 24.8215C32.146 27.8208 30.2305 30.4817 27.364 31.5296C24.4969 32.5777 21.3163 31.7792 19.2783 29.5738Z" fill="#985D1B" stroke="#7E4E18"/>
<path d="M19.4069 21.5903C18.8221 21.8178 18.1636 21.5282 17.9361 20.9434C17.7086 20.3586 17.9983 19.7002 18.583 19.4727C22.1811 18.0729 25.4253 16.0413 28.2022 13.48C28.6634 13.0546 29.3822 13.0836 29.8076 13.5449C30.233 14.0061 30.204 14.7249 29.7428 15.1503C26.7585 17.9029 23.2716 20.0868 19.4069 21.5903Z" fill="#985D1B" stroke="#7E4E18"/>
<path d="M54.0504 21.7421C54.6272 21.9892 55.2951 21.7219 55.5421 21.1451C55.7892 20.5683 55.5219 19.9005 54.9451 19.6534C51.3963 18.1332 48.2224 15.9935 45.5334 13.3401C45.0867 12.8994 44.3674 12.9042 43.9267 13.3508C43.486 13.7974 43.4908 14.5168 43.9374 14.9575C46.8272 17.8091 50.2386 20.1093 54.0504 21.7421Z" fill="#985D1B" stroke="#7E4E18"/>
<defs>
<radialGradient id="paint0_radial" cx="0" cy="0" r="1" gradientUnits="userSpaceOnUse" gradientTransform="translate(37 37) rotate(90) scale(41)">
<stop stop-color="#FFD73A"/>
<stop offset="0.97575" stop-color="#FFA218"/>
</radialGradient>
<linearGradient id="paint1_linear" x1="22.7919" y1="10.845" x2="23" y2="48" gradientUnits="userSpaceOnUse">
<stop stop-color="#FEF7E0"/>
<stop offset="0.843591" stop-color="#FFE68D" stop-opacity="0.01"/>
</linearGradient>
</defs>
</svg>
